# xmcd CD database file
#
# Track frame offsets:
#	150
#	38375
#	250740
#
# Disc length: 3416 seconds
#
# Revision: 2
# Processed by: cddbd v1.5.1PL2 Copyright (c) Steve Scherf et al.
# Submitted via: CDex 1.51
#
DISCID=160d5603
DTITLE=ÒÂ–„Â… Í”∏ı»Ì - ƒŒÕ  ¿–ÀŒ—
DYEAR=2001
DGENRE=Jazz
TTITLE0=Libretto (in Russian)
TTITLE1=An Attempt at The First Soviet Jazz Opera
TTITLE2=Encore
EXTD=YEAR: 2001
EXTT0=
EXTT1=
EXTT2=
PLAYORDER=
